<?xml version="1.0" encoding="UTF-8" standalone="no"?> <svg xmlns="http://www.w3.org/2000/svg" viewBox="0 0 128 128"><defs><style>.cls-1{fill:#4d91bb;}.cls-2{fill:#7aaccc;}.cls-3{fill:#2175aa;}.cls-4{fill:#333;}.cls-5{fill:#4d4d4d;}.cls-6{fill:#1f1f1f;}</style></defs><title>05 Eraser</title><g id="_05_Eraser" data-name="05 Eraser"><path class="cls-1" d="M110.38,56.63l-34-34a5.54,5.54,0,0,0-7.84,0L17.62,73.62a5.54,5.54,0,0,0,0,7.84L41.5,105.33A5.54,5.54,0,0,0,45.42,107H65.6a5.54,5.54,0,0,0,3.92-1.62l40.86-40.86A5.54,5.54,0,0,0,110.38,56.63Z"/><polygon class="cls-2" points="110.38 56.63 78.93 25.19 110.38 56.63 110.38 56.63"/><path class="cls-2" d="M20.15,76.14,71.1,25.19a5.54,5.54,0,0,1,7.84,0l-2.52-2.52a5.54,5.54,0,0,0-7.84,0L17.62,73.62a5.54,5.54,0,0,0,0,7.84L20.15,84A5.54,5.54,0,0,1,20.15,76.14Z"/><path class="cls-3" d="M110.38,56.63l-34-34h0L105.73,52a5.54,5.54,0,0,1,0,7.84l-1.84,1.84a2.14,2.14,0,0,1-3,.05l-34.33-32,34.64,34.64L69.89,95.68,35.25,61,67.09,95.57a2.14,2.14,0,0,1-.06,3c-2.06,2.06-3.3,3.78-6.08,3.78-21.82,0-21.95.53-24.1-1.62l4.64,4.64A5.54,5.54,0,0,0,45.42,107H65.6a5.54,5.54,0,0,0,3.92-1.62l40.86-40.86A5.54,5.54,0,0,0,110.38,56.63Z"/><rect class="cls-4" x="39.74" y="41.57" width="59.12" height="44.34" transform="translate(65.37 -30.33) rotate(45)"/><path class="cls-5" d="M64.08,27.17,32.72,58.52,35.25,61,66.6,29.69Z"/><rect class="cls-6" x="65.71" y="79.04" width="44.34" height="6.56" transform="translate(-32.47 86.25) rotate(-45)"/><rect class="cls-5" x="55.13" y="42.18" width="28.34" height="43.12" rx="4" ry="4" transform="translate(163.38 59.82) rotate(135)"/></g></svg>