<?xml version="1.0" encoding="UTF-8" standalone="no"?> <svg xmlns="http://www.w3.org/2000/svg" viewBox="0 0 128 128"><defs><style>.cls-1{fill:#ffc219;}.cls-2{fill:#ffda75;}.cls-3{fill:#f47c27;}.cls-4{fill:#333;}.cls-5{fill:#1f1f1f;}.cls-6{fill:#dd6966;}.cls-7{fill:#d2423f;}.cls-8{fill:#ccc;}.cls-9{fill:#b3b3b3;}.cls-10{fill:#f7e9da;}.cls-11{fill:#f7f3f0;}.cls-12{fill:#efd3b6;}.cls-13{fill:#666;}.cls-14{fill:#e88f8d;}.cls-15{fill:#e6e6e6;}</style></defs><title>01 Pencil</title><g id="_01_Pencil" data-name="01 Pencil"><path class="cls-1" d="M42.47,112,98.29,56.18,71.82,29.71,16,85.53h0v24.13A2.34,2.34,0,0,0,18.34,112H42.47Z"/><path class="cls-2" d="M17.61,111.87c-.2-.6-.13,1.16-.13-24.86h0L73.3,31.19l-1.48-1.48L16,85.53h0v24.13A2.35,2.35,0,0,0,17.61,111.87Z"/><path class="cls-3" d="M98.29,56.18,94.92,52.8l-.39.39L69.27,32.26,87.88,53.15a5,5,0,0,1-.2,6.9L39.4,108.32H16v1.34A2.34,2.34,0,0,0,18.34,112H42.47L98.22,56.25h0Z"/><rect class="cls-4" x="48.6" y="34.36" width="14.04" height="76.04" transform="translate(67.47 -18.13) rotate(45)"/><polygon class="cls-5" points="77.06 41.01 86.42 51.51 87.47 50.46 77.54 40.53 77.06 41.01"/><path class="cls-6" d="M78.81,24h28.08a4.68,4.68,0,0,1,4.68,4.68V46.27a0,0,0,0,1,0,0H74.13a0,0,0,0,1,0,0V28.72A4.68,4.68,0,0,1,78.81,24Z" transform="translate(52.05 -55.35) rotate(45)"/><path class="cls-7" d="M110.63,37.22l-2-2a4.67,4.67,0,0,1-1.06,5l-6.26,6.26a3.85,3.85,0,0,1-5.27.16L74.23,27.3,93.78,53.94l1.45-.67,3,3,12.41-12.41A4.68,4.68,0,0,0,110.63,37.22Z"/><rect class="cls-8" x="66.27" y="39.5" width="37.44" height="7.02" transform="translate(55.31 -47.5) rotate(45)"/><path class="cls-9" d="M97.33,50.39l-4.66,4.66h0l-.3.3,3.38,3.38,5-5Z"/><path class="cls-10" d="M16,85.53v24.13A2.34,2.34,0,0,0,18.34,112H42.47Z"/><path class="cls-11" d="M17.48,87h0L16,85.53v24.13a2.36,2.36,0,0,0,1.61,2.21h0C17.41,111.27,17.48,113,17.48,87Z"/><path class="cls-12" d="M38.79,108.32H16v1.34A2.34,2.34,0,0,0,18.34,112H42.47Z"/><path class="cls-4" d="M16,104.65v5A2.34,2.34,0,0,0,18.34,112h5Z"/><path class="cls-4" d="M16,104.65v5A2.34,2.34,0,0,0,18.34,112h5Z"/><path class="cls-13" d="M17.48,106.13,16,104.65v5a2.35,2.35,0,0,0,1.61,2.21C17.41,111.27,17.48,111.28,17.48,106.13Z"/><path class="cls-5" d="M16,108.32v1.34A2.34,2.34,0,0,0,18.34,112h5l-3.68-3.68Z"/><path class="cls-14" d="M73.23,31.26,85.64,18.85a4.68,4.68,0,0,1,6.62,0l18.37,18.37L90.78,17.37a4.68,4.68,0,0,0-6.62,0L71.75,29.78Z"/><path class="cls-15" d="M70.75,33.74l5-5L74.23,27.3l-5,5Z"/></g></svg>