<?xml version="1.0" encoding="UTF-8" standalone="no"?> <svg width="64" height="64" viewBox="0 0 64 64" fill="none" xmlns="http://www.w3.org/2000/svg">
<path d="M8.73 24.55C12.5493 20.7329 17.7203 18.5768 23.12 18.55H45L41.36 14.91C40.5577 14.1064 40.1075 13.017 40.1085 11.8815C40.1094 10.746 40.5614 9.65733 41.365 8.85505C42.1686 8.05277 43.258 7.60258 44.3935 7.60352C45.5291 7.60445 46.6177 8.05644 47.42 8.86005L60.71 22.1C60.8947 22.2863 60.9989 22.5377 61 22.8C61.0008 22.9317 60.9755 23.0621 60.9258 23.184C60.876 23.3058 60.8027 23.4166 60.71 23.51L47.43 36.78C46.6258 37.5824 45.5361 38.0331 44.4 38.0331C43.2639 38.0331 42.1742 37.5824 41.37 36.78C40.57 35.9745 40.1211 34.8853 40.1211 33.75C40.1211 32.6148 40.57 31.5256 41.37 30.72L45 27.09H22.62C19.743 27.1766 17.0127 28.3802 15.0083 30.4459C13.0038 32.5115 11.8827 35.2767 11.8827 38.155C11.8827 41.0334 13.0038 43.7986 15.0083 45.8642C17.0127 47.9299 19.743 49.1336 22.62 49.2201H29.06C30.1606 49.2732 31.1986 49.7479 31.9588 50.5457C32.7189 51.3434 33.1429 52.4031 33.1429 53.5051C33.1429 54.607 32.7189 55.6667 31.9588 56.4644C31.1986 57.2622 30.1606 57.7369 29.06 57.7901H22.62C17.426 57.7927 12.4431 55.7347 8.76482 52.0676C5.08651 48.4006 3.01324 43.424 3 38.23C3.00194 35.684 3.50944 33.1637 4.49307 30.8154C5.47669 28.4671 6.91685 26.3374 8.73 24.55V24.55Z" fill="#FFE17D"/>
<path d="M45 27.09H33.34V18.52H45L41.36 14.88C40.5577 14.0764 40.1075 12.987 40.1084 11.8515C40.1094 10.716 40.5614 9.6273 41.365 8.82502C42.1686 8.02274 43.258 7.57255 44.3935 7.57349C45.529 7.57443 46.6177 8.02641 47.42 8.83002L60.71 22.1C60.8947 22.2863 60.9989 22.5377 61 22.8C61.0007 22.9316 60.9755 23.0621 60.9257 23.1839C60.876 23.3058 60.8026 23.4166 60.71 23.51L47.43 36.78C46.6257 37.5824 45.536 38.033 44.4 38.033C43.2639 38.033 42.1742 37.5824 41.37 36.78C40.57 35.9745 40.121 34.8853 40.121 33.75C40.121 32.6148 40.57 31.5256 41.37 30.72L45 27.09Z" fill="#F8B64C"/>
</svg>
