<?xml version="1.0" encoding="UTF-8" standalone="no"?> <svg id="Capa_1" enable-background="new 0 0 512 512" height="512" viewBox="0 0 512 512" width="512" xmlns="http://www.w3.org/2000/svg"><g><g><path d="m436 512h-420c-8.284 0-15-6.716-15-15v-482c0-8.284 6.716-15 15-15h60c8.284 0 15 6.716 15 15v10c0 8.271 6.729 15 15 15s15-6.729 15-15v-10c0-8.284 6.716-15 15-15h60c8.284 0 15 6.716 15 15v10c0 8.271 6.729 15 15 15s15-6.729 15-15v-10c0-8.284 6.716-15 15-15h60c8.284 0 15 6.716 15 15v10c0 8.271 6.729 15 15 15s15-6.729 15-15v-10c0-8.284 6.716-15 15-15h60c8.284 0 15 6.716 15 15v482c0 8.284-6.716 15-15 15z" fill="#ffe278"/></g><g><path d="m436 0h-60c-8.284 0-15 6.716-15 15v10c0 8.271-6.729 15-15 15s-15-6.729-15-15v-10c0-8.284-6.716-15-15-15h-60c-8.284 0-15 6.716-15 15v10c0 8.271-6.729 15-15 15v472h210c8.284 0 15-6.716 15-15v-482c0-8.284-6.716-15-15-15z" fill="#ffd845"/></g><g><path d="m376 152h-300c-8.284 0-15-6.716-15-15s6.716-15 15-15h300c8.284 0 15 6.716 15 15s-6.716 15-15 15z" fill="#556e82"/></g><g><path d="m376 212h-300c-8.284 0-15-6.716-15-15s6.716-15 15-15h300c8.284 0 15 6.716 15 15s-6.716 15-15 15z" fill="#556e82"/></g><g><path d="m306 272h-230c-8.284 0-15-6.716-15-15s6.716-15 15-15h230c8.284 0 15 6.716 15 15s-6.716 15-15 15z" fill="#556e82"/></g><g><path d="m256 332h-180c-8.284 0-15-6.716-15-15s6.716-15 15-15h180c8.284 0 15 6.716 15 15s-6.716 15-15 15z" fill="#556e82"/></g><g><path d="m211 392h-135c-8.284 0-15-6.716-15-15s6.716-15 15-15h135c8.284 0 15 6.716 15 15s-6.716 15-15 15z" fill="#556e82"/></g><g><path d="m253 452h-177c-8.284 0-15-6.716-15-15s6.716-15 15-15h177z" fill="#556e82"/></g><g><g fill="#3c4655"><path d="m391 137c0-8.284-6.716-15-15-15h-150v30h150c8.284 0 15-6.716 15-15z"/><path d="m376 182h-150v30h150c8.284 0 15-6.716 15-15s-6.716-15-15-15z"/><path d="m306 272c8.284 0 15-6.716 15-15s-6.716-15-15-15h-80v30z"/><path d="m256 332c8.284 0 15-6.716 15-15s-6.716-15-15-15h-30v30z"/><path d="m226 422h27v30h-27z"/></g></g><g><path d="m474.787 247.052-31.819-31.819c-5.858-5.858-15.355-5.858-21.213 0l-159.896 159.894c-5.858 5.858-5.858 15.355 0 21.213l31.82 31.82c5.858 5.858 15.355 5.858 21.213 0l159.895-159.895c5.858-5.858 5.858-15.355 0-21.213z" fill="#6ba7ff"/><path d="m261.859 375.128c-1.5 1.5-2.665 3.302-3.418 5.286l-19.446 51.267c-2.094 5.519-.755 11.753 3.418 15.926 4.174 4.174 10.408 5.512 15.926 3.418l51.266-19.446c1.985-.753 3.787-1.918 5.287-3.419z" fill="#fabe8f"/><path d="m506.607 215.232-31.819-31.819c-5.858-5.858-15.355-5.858-21.213 0l-31.82 31.819 53.033 53.032 31.819-31.819c5.857-5.857 5.857-15.355 0-21.213z" fill="#ff3838"/></g></g></svg>