<?xml version="1.0" encoding="UTF-8" standalone="no"?> <svg width="64" height="64" viewBox="0 0 64 64" fill="none" xmlns="http://www.w3.org/2000/svg">
<path d="M55.27 24.55C51.4508 20.7329 46.2797 18.5768 40.88 18.55H19L22.64 14.91C23.0373 14.5121 23.3523 14.0399 23.567 13.5203C23.7817 13.0006 23.892 12.4438 23.8915 11.8815C23.8911 11.3193 23.7799 10.7626 23.5643 10.2433C23.3487 9.72403 23.0329 9.2523 22.635 8.85505C22.2371 8.4578 21.7649 8.14281 21.2452 7.92808C20.7256 7.71334 20.1687 7.60305 19.6065 7.60352C19.0442 7.60398 18.4876 7.71519 17.9683 7.93078C17.449 8.14638 16.9773 8.46214 16.58 8.86005L3.29002 22.1C3.10527 22.2863 3.00112 22.5377 3.00002 22.8C2.99926 22.9317 3.02448 23.0621 3.07425 23.184C3.12401 23.3058 3.19734 23.4166 3.29002 23.51L16.57 36.78C17.3743 37.5824 18.4639 38.0331 19.6 38.0331C20.7361 38.0331 21.8258 37.5824 22.63 36.78C23.43 35.9745 23.8789 34.8853 23.8789 33.75C23.8789 32.6148 23.43 31.5256 22.63 30.72L19 27.09H41.38C44.2571 27.1766 46.9873 28.3802 48.9918 30.4459C50.9962 32.5115 52.1173 35.2767 52.1173 38.155C52.1173 41.0334 50.9962 43.7986 48.9918 45.8642C46.9873 47.9299 44.2571 49.1336 41.38 49.2201H34.94C33.8394 49.2732 32.8014 49.7479 32.0412 50.5457C31.2811 51.3434 30.8571 52.4031 30.8571 53.5051C30.8571 54.607 31.2811 55.6667 32.0412 56.4644C32.8014 57.2622 33.8394 57.7369 34.94 57.7901H41.38C46.574 57.7927 51.5569 55.7347 55.2352 52.0676C58.9135 48.4006 60.9868 43.424 61 38.23C60.9981 35.684 60.4906 33.1637 59.507 30.8154C58.5233 28.4671 57.0832 26.3374 55.27 24.55V24.55Z" fill="#FFE17D"/>
<path d="M19 27.09H30.66V18.52H19L22.64 14.88C23.0373 14.4821 23.3523 14.0099 23.567 13.4902C23.7817 12.9706 23.892 12.4137 23.8915 11.8515C23.8911 11.2892 23.7799 10.7326 23.5643 10.2133C23.3487 9.694 23.0329 9.22227 22.635 8.82502C22.2371 8.42777 21.7649 8.11279 21.2452 7.89805C20.7256 7.68331 20.1687 7.57302 19.6065 7.57349C19.0442 7.57395 18.4876 7.68516 17.9683 7.90075C17.449 8.11635 16.9773 8.43211 16.58 8.83002L3.29002 22.1C3.10527 22.2863 3.00112 22.5377 3.00002 22.8C2.99926 22.9316 3.02448 23.0621 3.07425 23.1839C3.12401 23.3058 3.19734 23.4166 3.29002 23.51L16.57 36.78C17.3743 37.5824 18.4639 38.033 19.6 38.033C20.7361 38.033 21.8258 37.5824 22.63 36.78C23.43 35.9745 23.8789 34.8853 23.8789 33.75C23.8789 32.6148 23.43 31.5256 22.63 30.72L19 27.09Z" fill="#F8B64C"/>
</svg>
